<?xml version="1.0" encoding="utf-8"?>
<!-- Generator: Adobe Illustrator 19.0.0, SVG Export Plug-In . SVG Version: 6.00 Build 0)  -->
<svg version="1.1" id="Layer_1" xmlns="http://www.w3.org/2000/svg" xmlns:xlink="http://www.w3.org/1999/xlink" x="0px" y="0px"
	 viewBox="-257 349 96 96" style="enable-background:new -257 349 96 96;" xml:space="preserve">
<style type="text/css">
	.st0{fill:#FF0000;}
</style>
<g id="XMLID_2_">
	<path id="XMLID_6_" class="st0" d="M-213.6,349c-1.3,0-2.2,1-2.2,2.2v5.5c-2.5,0.4-5,1-7.4,1.9l-2.7-4.6c-0.6-1-2.1-1.5-3.1-0.9
		l-7.8,4.6c-1,0.6-1.5,2.1-0.9,3.1l2.7,4.6c-1.9,1.6-3.8,3.4-5.5,5.3l-4.6-2.7c-1-0.6-2.5-0.3-3.1,0.9l-4.6,7.8
		c-0.6,1-0.3,2.5,0.9,3.1l4.6,2.7c-0.9,2.4-1.5,4.9-1.9,7.4h-5.6c-1.3,0-2.2,1-2.2,2.2v9.2c0,1.3,1,2.2,2.2,2.2h5.5
		c0.4,2.5,1,5,1.9,7.4l-4.6,2.7c-1,0.6-1.5,2.1-0.9,3.1l4.6,7.8c0.6,1,2.1,1.5,3.1,0.9l4.6-2.7c1.6,1.9,3.4,3.8,5.5,5.5l-2.7,4.6
		c-0.6,1-0.3,2.5,0.9,3.1l7.8,4.6c1,0.6,2.5,0.3,3.1-0.9l2.7-4.6c2.4,0.9,4.9,1.5,7.4,1.9v5.9c0,1.3,1,2.2,2.2,2.2h9.2
		c1.3,0,2.2-1,2.2-2.2v-5.5c2.5-0.4,5-1,7.4-1.9l2.7,4.6c0.6,1,2.1,1.5,3.1,0.9l7.8-4.6c1-0.6,1.5-2.1,0.9-3.1l-2.7-4.6
		c1.9-1.6,3.8-3.4,5.5-5.5l4.6,2.7c1,0.6,2.5,0.3,3.1-0.9l4.6-7.8c0.6-1,0.3-2.5-0.9-3.1l-4.3-2.8c0.9-2.4,1.5-4.9,1.9-7.4h5.5
		c1.3,0,2.2-1,2.2-2.2v-9.2c0-1.3-1-2.2-2.2-2.2h-5.5c-0.4-2.5-1-5-1.9-7.4l4.6-2.7c1-0.6,1.5-2.1,0.9-3.1l-4.6-7.8
		c-0.6-1-2.1-1.5-3.1-0.9l-4.6,2.7c-1.6-1.9-3.4-3.7-5.5-5.3l2.7-4.6c0.6-1,0.3-2.5-0.9-3.1l-7.8-4.6c-1-0.6-2.5-0.3-3.1,0.9
		l-2.8,4.3c-2.4-0.9-4.9-1.5-7.4-1.9v-5.5c0-1.3-1-2.2-2.2-2.2H-213.6z M-209.1,381c8.9,0,16,7.1,16,16s-7.1,16-16,16
		s-16.1-7.1-16.1-16S-218,381-209.1,381z"/>
</g>
</svg>
